<svg width="197" height="82" viewBox="0 0 197 82" fill="none" xmlns="http://www.w3.org/2000/svg">
<path d="M83.064 61.2862H99.8742V56.3777H89.0737L99.7811 40.9129C100.246 40.3049 100.521 39.5647 100.568 38.7911C100.568 37.5925 99.6668 36.875 98.1602 36.875H81.5574V39.1149C81.5585 39.7573 81.8059 40.3731 82.2453 40.8274C82.6848 41.2816 83.2805 41.5373 83.902 41.5385H92.2267L81.4558 57.2045C80.9575 57.8095 80.6607 58.5641 80.6094 59.3569C80.6094 60.5818 81.4981 61.2862 83.0471 61.2862" fill="white"/>
<path d="M124.159 48.6868C124.159 40.9348 122.466 36.4375 113.76 36.4375C105.91 36.4375 103.125 39.7186 103.125 48.9799C103.125 57.6638 106.253 61.5355 113.282 61.5355C116.755 61.5332 120.222 61.2199 123.643 60.5993L123.418 58.4863C123.351 57.864 123.05 57.294 122.579 56.8995C122.109 56.5049 121.507 56.3175 120.904 56.3777C118.842 56.604 116.77 56.7223 114.696 56.732C111.06 56.732 109.283 55.2052 109.101 51.9198L109.067 51.3248H124.129C124.163 50.4936 124.18 49.2599 124.18 48.6693M118.128 46.9544L118.069 47.4531H108.885V46.8888C108.885 43.7433 109.262 41.0047 113.76 41.0047C116.757 41.0047 118.153 42.5578 118.153 45.887C118.153 46.0926 118.153 46.6613 118.107 46.9544" fill="white"/>
<path d="M169.619 39.3527C168.427 38.2733 167.027 37.4685 165.511 36.9918C163.996 36.5151 162.399 36.3774 160.828 36.5879C155.327 37.3184 151.188 42.3801 151.188 48.3647V61.489H153.304C154.209 61.4879 155.076 61.1154 155.716 60.4534C156.355 59.7915 156.715 58.8942 156.715 57.9586V47.9622C156.716 47.1025 156.903 46.254 157.262 45.4785C157.621 44.703 158.143 44.0202 158.79 43.4798C159.437 42.9394 160.192 42.5552 161.001 42.3551C161.81 42.155 162.652 42.1441 163.465 42.3232C164.732 42.6237 165.86 43.3648 166.661 44.4223C167.462 45.4799 167.888 46.7898 167.866 48.1329V61.4759H173.398V47.9622C173.396 46.3307 173.058 44.7184 172.406 43.2324C171.754 41.7464 170.804 40.4209 169.619 39.344" fill="white"/>
<path d="M190.298 60.106C189.629 60.3685 189.007 60.7272 188.351 61.0072C186.336 61.8559 184.076 61.6021 182.07 60.8584C180.9 60.4312 179.818 59.778 178.884 58.9335C177.963 58.0927 177.229 57.0573 176.729 55.8975C176.193 54.6337 175.926 53.2656 175.946 51.8858V37.7422H178.486C179.316 37.7422 180.113 38.0833 180.7 38.6904C181.288 39.2975 181.617 40.1209 181.617 40.9795V51.9033C181.603 52.5624 181.72 53.2176 181.96 53.8282C182.172 54.3495 182.49 54.8179 182.891 55.2019C183.286 55.5714 183.752 55.8502 184.258 56.0199C184.804 56.2065 185.376 56.2981 185.951 56.2912C186.526 56.2947 187.094 56.1662 187.614 55.915C188.126 55.6728 188.589 55.3346 188.981 54.9175C189.368 54.5116 189.68 54.0375 189.904 53.5176C190.133 53.0117 190.257 52.4618 190.268 51.9033V37.7422H196.015V61.8034C196.009 63.2235 195.695 64.6242 195.097 65.9025C194.5 67.1745 193.664 68.3107 192.638 69.2449C191.571 70.2199 190.342 70.9876 189.011 71.511C187.597 72.0703 186.094 72.3521 184.58 72.3422L178.054 72.3028V70.0717C178.055 69.1291 178.413 68.2244 179.051 67.5515C179.69 66.8785 180.558 66.4907 181.469 66.4712C182.98 66.4406 184.432 66.3925 184.546 66.3881C184.889 66.3619 185.27 66.3181 185.676 66.2481C186.938 66.0136 188.083 65.3371 188.92 64.3325C189.756 63.3279 190.232 62.0563 190.268 60.7316L190.298 60.106Z" fill="white"/>
<path d="M147.905 26.8984H142.369V36.9254L141.235 36.7985C139.955 36.5559 138.656 36.43 137.354 36.4223C130.79 36.4223 126.719 38.5222 126.719 48.9647C126.719 51.8171 126.867 55.0107 128.319 57.5305C129.542 59.6567 131.645 60.7372 133.935 61.1835C136.395 61.6032 138.898 61.687 141.379 61.4328C142.49 61.3482 143.597 61.2022 144.693 60.9953C145.019 60.9297 147.905 60.3785 147.905 60.0504V26.8984ZM142.369 56.2093C140.97 56.65 139.511 56.8553 138.048 56.8174C132.741 56.8174 132.741 52.2808 132.741 48.9429C132.741 45.2899 132.741 41.1514 138.628 41.1514C139.593 41.1599 140.553 41.2966 141.485 41.5583L142.369 41.9957V56.2093Z" fill="white"/>
<path d="M148.432 71.7543C148.25 71.7543 148.093 71.6892 147.963 71.5588C147.833 71.4284 147.767 71.2722 147.767 71.0902C147.767 70.9082 147.833 70.752 147.963 70.6216C148.093 70.4913 148.25 70.4261 148.432 70.4261C148.614 70.4261 148.77 70.4913 148.9 70.6216C149.031 70.752 149.096 70.9082 149.096 71.0902C149.096 71.2107 149.065 71.3214 149.003 71.4223C148.944 71.5231 148.864 71.6043 148.764 71.6658C148.665 71.7248 148.555 71.7543 148.432 71.7543ZM152.961 71.8134C152.429 71.8134 151.972 71.6879 151.588 71.437C151.204 71.1861 150.909 70.8406 150.703 70.4003C150.496 69.96 150.393 69.4569 150.393 68.8912C150.393 68.3156 150.498 67.8077 150.71 67.3674C150.924 66.9246 151.222 66.579 151.603 66.3306C151.987 66.0797 152.434 65.9543 152.946 65.9543C153.344 65.9543 153.703 66.0281 154.023 66.1756C154.343 66.3232 154.605 66.5298 154.809 66.7955C155.013 67.0612 155.14 67.3711 155.189 67.7253H154.318C154.252 67.467 154.104 67.2383 153.876 67.039C153.649 66.8373 153.344 66.7365 152.961 66.7365C152.621 66.7365 152.324 66.825 152.068 67.0021C151.814 67.1768 151.616 67.424 151.474 67.7437C151.333 68.061 151.263 68.4337 151.263 68.8617C151.263 69.2995 151.332 69.6808 151.47 70.0055C151.61 70.3302 151.807 70.5823 152.06 70.7618C152.316 70.9414 152.616 71.0312 152.961 71.0312C153.187 71.0312 153.392 70.9918 153.577 70.9131C153.761 70.8344 153.917 70.7213 154.045 70.5737C154.173 70.4261 154.264 70.249 154.318 70.0424H155.189C155.14 70.3769 155.018 70.6782 154.824 70.9463C154.632 71.212 154.377 71.4235 154.06 71.5809C153.745 71.7359 153.379 71.8134 152.961 71.8134ZM158.764 71.8134C158.253 71.8134 157.804 71.6916 157.418 71.4481C157.034 71.2046 156.734 70.8639 156.517 70.4261C156.303 69.9882 156.196 69.4766 156.196 68.8912C156.196 68.3009 156.303 67.7855 156.517 67.3453C156.734 66.905 157.034 66.5631 157.418 66.3195C157.804 66.076 158.253 65.9543 158.764 65.9543C159.276 65.9543 159.724 66.076 160.107 66.3195C160.494 66.5631 160.794 66.905 161.008 67.3453C161.224 67.7855 161.332 68.3009 161.332 68.8912C161.332 69.4766 161.224 69.9882 161.008 70.4261C160.794 70.8639 160.494 71.2046 160.107 71.4481C159.724 71.6916 159.276 71.8134 158.764 71.8134ZM158.764 71.0312C159.153 71.0312 159.473 70.9316 159.724 70.7323C159.975 70.5331 160.16 70.2711 160.281 69.9464C160.401 69.6217 160.462 69.27 160.462 68.8912C160.462 68.5124 160.401 68.1594 160.281 67.8323C160.16 67.5051 159.975 67.2407 159.724 67.039C159.473 66.8373 159.153 66.7365 158.764 66.7365C158.376 66.7365 158.056 66.8373 157.805 67.039C157.554 67.2407 157.368 67.5051 157.248 67.8323C157.127 68.1594 157.067 68.5124 157.067 68.8912C157.067 69.27 157.127 69.6217 157.248 69.9464C157.368 70.2711 157.554 70.5331 157.805 70.7323C158.056 70.9316 158.376 71.0312 158.764 71.0312ZM162.662 71.6953V66.0281H163.503V66.9136H163.577C163.695 66.611 163.885 66.3761 164.148 66.2088C164.412 66.0391 164.728 65.9543 165.097 65.9543C165.471 65.9543 165.782 66.0391 166.03 66.2088C166.281 66.3761 166.477 66.611 166.617 66.9136H166.676C166.821 66.6209 167.039 66.3884 167.329 66.2162C167.619 66.0416 167.967 65.9543 168.373 65.9543C168.88 65.9543 169.294 66.1129 169.616 66.4302C169.939 66.7451 170.1 67.2358 170.1 67.9024V71.6953H169.229V67.9024C169.229 67.4842 169.115 67.1854 168.886 67.0058C168.657 66.8262 168.388 66.7365 168.078 66.7365C167.679 66.7365 167.371 66.857 167.152 67.098C166.933 67.3366 166.823 67.6392 166.823 68.0057V71.6953H165.938V67.8138C165.938 67.4916 165.833 67.2321 165.624 67.0353C165.415 66.8361 165.146 66.7365 164.816 66.7365C164.59 66.7365 164.378 66.7967 164.182 66.9173C163.987 67.0378 163.83 67.205 163.709 67.419C163.591 67.6306 163.532 67.8753 163.532 68.1533V71.6953H162.662Z" fill="#2AE4FF"/>
<path d="M48.7504 12.2979C43.5194 -0.725813 26.7177 -5.83116 16.5859 9.15677C16.5859 9.15677 30.5986 17.7488 48.7504 12.2979Z" fill="url(#paint0_linear_696_1994)"/>
<path d="M35.4431 23.0699C21.8578 23.1399 11.0573 18.2095 7.74356 15.6328H7.67161C2.49144 17.6846 0.413443 21.4775 0.413443 26.8541C0.413443 30.4589 2.03436 33.7225 4.64561 36.1023C1.79736 38.5085 0.015625 41.9076 0.015625 45.6787C0.0297317 47.5002 0.442063 49.2948 1.22179 50.9284L1.5265 50.6353C10.6172 41.9641 20.2614 33.9343 30.3941 26.6003C32.2943 25.2442 33.9872 24.063 35.4431 23.0699Z" fill="url(#paint1_linear_696_1994)"/>
<path d="M56.6714 36.598C58.385 35.5167 59.7887 33.9827 60.7379 32.154C61.6871 30.3254 62.1475 28.2682 62.0716 26.1944C61.9958 24.1206 61.3863 22.1052 60.3062 20.3559C59.2261 18.6066 57.7143 17.1866 55.9265 16.2422C45.435 23.1762 35.5275 31.1164 19.9531 44.4638C45.2742 44.3194 52.7651 63.1921 52.7651 63.1921C61.7965 60.6592 67.5861 42.7926 56.6714 36.598Z" fill="url(#paint2_linear_696_1994)"/>
<path d="M3.20312 53.7692C12.8567 62.9562 24.402 57.6802 24.402 57.6802C25.0157 66.0448 20.8978 77.4892 16.3609 81.7414H38.2962C42.2533 57.4002 30.399 48.4495 3.20312 53.7692Z" fill="url(#paint3_linear_696_1994)"/>
<defs>
<linearGradient id="paint0_linear_696_1994" x1="33.6667" y1="10.2735" x2="91.903" y2="60.9153" gradientUnits="userSpaceOnUse">
<stop offset="0.1" stop-color="#ED306F"/>
<stop offset="0.18" stop-color="#ED306F"/>
<stop offset="0.28" stop-color="#B72487"/>
<stop offset="0.36" stop-color="#861A9C"/>
<stop offset="0.39" stop-color="#841A9B"/>
<stop offset="0.4" stop-color="#7D1A97"/>
<stop offset="0.41" stop-color="#721B91"/>
<stop offset="0.42" stop-color="#4B1C7D"/>
<stop offset="0.43" stop-color="#001F55"/>
<stop offset="0.46" stop-color="#013367"/>
<stop offset="0.56" stop-color="#046E9D"/>
<stop offset="0.6" stop-color="#0585B2"/>
<stop offset="0.64" stop-color="#0D99C3"/>
<stop offset="0.7" stop-color="#1ABADD"/>
<stop offset="0.77" stop-color="#23D1F0"/>
<stop offset="0.83" stop-color="#28DFFB"/>
<stop offset="0.88" stop-color="#2AE4FF"/>
</linearGradient>
<linearGradient id="paint1_linear_696_1994" x1="-1.63492" y1="13.5373" x2="50.4977" y2="70.8477" gradientUnits="userSpaceOnUse">
<stop offset="0.1" stop-color="#ED306F"/>
<stop offset="0.18" stop-color="#ED306F"/>
<stop offset="0.28" stop-color="#B72487"/>
<stop offset="0.36" stop-color="#861A9C"/>
<stop offset="0.39" stop-color="#841A9B"/>
<stop offset="0.4" stop-color="#7D1A97"/>
<stop offset="0.41" stop-color="#721B91"/>
<stop offset="0.42" stop-color="#4B1C7D"/>
<stop offset="0.43" stop-color="#001F55"/>
<stop offset="0.46" stop-color="#013367"/>
<stop offset="0.56" stop-color="#046E9D"/>
<stop offset="0.6" stop-color="#0585B2"/>
<stop offset="0.64" stop-color="#0D99C3"/>
<stop offset="0.7" stop-color="#1ABADD"/>
<stop offset="0.77" stop-color="#23D1F0"/>
<stop offset="0.83" stop-color="#28DFFB"/>
<stop offset="0.88" stop-color="#2AE4FF"/>
</linearGradient>
<linearGradient id="paint2_linear_696_1994" x1="12.8939" y1="0.326799" x2="65.0265" y2="57.6372" gradientUnits="userSpaceOnUse">
<stop offset="0.1" stop-color="#ED306F"/>
<stop offset="0.18" stop-color="#ED306F"/>
<stop offset="0.28" stop-color="#B72487"/>
<stop offset="0.36" stop-color="#861A9C"/>
<stop offset="0.39" stop-color="#841A9B"/>
<stop offset="0.4" stop-color="#7D1A97"/>
<stop offset="0.41" stop-color="#721B91"/>
<stop offset="0.42" stop-color="#4B1C7D"/>
<stop offset="0.43" stop-color="#001F55"/>
<stop offset="0.46" stop-color="#013367"/>
<stop offset="0.56" stop-color="#046E9D"/>
<stop offset="0.6" stop-color="#0585B2"/>
<stop offset="0.64" stop-color="#0D99C3"/>
<stop offset="0.7" stop-color="#1ABADD"/>
<stop offset="0.77" stop-color="#23D1F0"/>
<stop offset="0.83" stop-color="#28DFFB"/>
<stop offset="0.88" stop-color="#2AE4FF"/>
</linearGradient>
<linearGradient id="paint3_linear_696_1994" x1="-13.552" y1="24.3752" x2="38.5806" y2="81.6856" gradientUnits="userSpaceOnUse">
<stop offset="0.1" stop-color="#ED306F"/>
<stop offset="0.18" stop-color="#ED306F"/>
<stop offset="0.28" stop-color="#B72487"/>
<stop offset="0.36" stop-color="#861A9C"/>
<stop offset="0.39" stop-color="#841A9B"/>
<stop offset="0.4" stop-color="#7D1A97"/>
<stop offset="0.41" stop-color="#721B91"/>
<stop offset="0.42" stop-color="#4B1C7D"/>
<stop offset="0.43" stop-color="#001F55"/>
<stop offset="0.46" stop-color="#013367"/>
<stop offset="0.56" stop-color="#046E9D"/>
<stop offset="0.6" stop-color="#0585B2"/>
<stop offset="0.64" stop-color="#0D99C3"/>
<stop offset="0.7" stop-color="#1ABADD"/>
<stop offset="0.77" stop-color="#23D1F0"/>
<stop offset="0.83" stop-color="#28DFFB"/>
<stop offset="0.88" stop-color="#2AE4FF"/>
</linearGradient>
</defs>
</svg>
