<svg width="53" height="53" viewBox="0 0 53 53" fill="none" xmlns="http://www.w3.org/2000/svg">
<path d="M52.25 26.4997C52.25 40.4171 40.7355 51.7249 26.5 51.7249C12.2645 51.7249 0.75 40.4171 0.75 26.4997C0.75 12.5822 12.2645 1.27441 26.5 1.27441C40.7355 1.27441 52.25 12.5822 52.25 26.4997Z" fill="white" stroke="url(#paint0_linear_1_1474)" stroke-width="1.5"/>
<path d="M34.6087 29.4615C32.5186 32.5393 29.758 34.6949 26.5012 34.6949C23.2444 34.6949 20.483 32.5386 18.393 29.46C16.1777 30.3378 13.0469 32.0063 13.0469 34.7371C13.0469 37.4212 14.3588 39.8614 16.9819 40.6293C20.0765 41.4969 23.2827 41.9214 26.5012 41.8897C29.7197 41.9213 32.9259 41.4968 36.0205 40.6293C38.6443 39.8614 39.9563 37.4212 39.9563 34.7371C39.9563 32.0063 36.8247 30.3416 34.6087 29.4615Z" fill="#272727"/>
<path d="M19.321 26.7169C18.1311 23.8785 17.523 20.8382 17.5313 17.7694C17.5313 14.1525 21.4802 11.1152 26.5014 11.1152C31.5226 11.1152 35.4707 14.1525 35.4707 17.7694C35.4791 20.8382 34.8709 23.8785 33.681 26.7169H33.6748C31.6155 30.4611 29.0531 32.4978 26.5014 32.4978C23.9497 32.4978 21.3865 30.4649 19.328 26.7162L19.321 26.7169Z" fill="#272727"/>
<defs>
<linearGradient id="paint0_linear_1_1474" x1="-22.9632" y1="-123.002" x2="-92.1009" y2="-16.7327" gradientUnits="userSpaceOnUse">
<stop offset="0.259291" stop-color="#ED306F" stop-opacity="0"/>
<stop offset="0.331863" stop-color="#ED306F"/>
<stop offset="0.588854" stop-color="#B72487"/>
<stop offset="0.616906" stop-color="#861A9C"/>
<stop offset="0.63986" stop-color="#841A9B"/>
<stop offset="0.667955" stop-color="#7D1A97"/>
<stop offset="0.689622" stop-color="#721B91"/>
<stop offset="0.711427" stop-color="#4B1C7D"/>
<stop offset="0.756463" stop-color="#001F55"/>
<stop offset="0.788967" stop-color="#013367"/>
<stop offset="0.814582" stop-color="#046E9D"/>
<stop offset="0.85443" stop-color="#0585B2"/>
<stop offset="0.880458" stop-color="#0D99C3"/>
<stop offset="0.914704" stop-color="#1ABADD"/>
<stop offset="0.943857" stop-color="#23D1F0"/>
<stop offset="0.969334" stop-color="#28DFFB"/>
<stop offset="1" stop-color="#2AE4FF"/>
</linearGradient>
</defs>
</svg>
